<svg xmlns="http://www.w3.org/2000/svg" width="820" height="560" viewBox="0 0 820 560"><style>.grid{stroke:#e3e7f4;fill:none}.grid2{stroke:#eef0f8;fill:none}.axis{stroke:#8c96b2;fill:none}.tick{font-size:10.5px;fill:#6b7794;text-anchor:middle;font-family:sans-serif}.lbl{font-size:15px;font-weight:600;font-family:Georgia,serif;font-style:italic;paint-order:stroke;stroke:#fff;stroke-width:3.5px}.lbl.plain{font-style:normal;font-family:sans-serif;font-size:12.5px;font-weight:500}</style><defs><pattern id="hatch0" width="9" height="9" patternUnits="userSpaceOnUse" patternTransform="rotate(45)"><line x1="0" y1="0" x2="0" y2="9" stroke="#b3261e" stroke-width="1.15" opacity=".75"/></pattern><pattern id="hatch1" width="9" height="9" patternUnits="userSpaceOnUse" patternTransform="rotate(-45)"><line x1="0" y1="0" x2="0" y2="9" stroke="#22468f" stroke-width="1.15" opacity=".75"/></pattern><pattern id="hatch2" width="9" height="9" patternUnits="userSpaceOnUse" patternTransform="rotate(0)"><line x1="0" y1="0" x2="0" y2="9" stroke="#1f7a5a" stroke-width="1.15" opacity=".75"/></pattern></defs><rect width="100%" height="100%" fill="#fff"/><path d="M9.8 0V560M28.2 0V560M46.6 0V560M65 0V560M83.4 0V560M101.8 0V560M120.2 0V560M138.6 0V560M157 0V560M175.4 0V560M193.8 0V560M212.2 0V560M230.6 0V560M249 0V560M267.4 0V560M285.8 0V560M304.2 0V560M322.6 0V560M341 0V560M359.4 0V560M377.8 0V560M396.2 0V560M414.6 0V560M433 0V560M451.4 0V560M469.8 0V560M488.2 0V560M506.6 0V560M525 0V560M543.4 0V560M561.8 0V560M580.2 0V560M598.6 0V560M617 0V560M635.4 0V560M653.8 0V560M672.2 0V560M690.6 0V560M709 0V560M727.4 0V560M745.8 0V560M764.2 0V560M782.6 0V560M801 0V560M819.4 0V560M0 546.8H820M0 528.4H820M0 510H820M0 491.6H820M0 473.2H820M0 454.8H820M0 436.4H820M0 418H820M0 399.6H820M0 381.2H820M0 362.8H820M0 344.4H820M0 326H820M0 307.6H820M0 289.2H820M0 270.8H820M0 252.4H820M0 234H820M0 215.6H820M0 197.2H820M0 178.8H820M0 160.4H820M0 142H820M0 123.6H820M0 105.2H820M0 86.8H820M0 68.4H820M0 50H820M0 31.6H820M0 13.2H820" class="grid2"/><path d="M65 0V560M157 0V560M249 0V560M341 0V560M433 0V560M525 0V560M617 0V560M709 0V560M801 0V560M0 473.2H820M0 381.2H820M0 289.2H820M0 197.2H820M0 105.2H820M0 13.2H820" class="grid"/><path d="M0 381.2H820M249 0V560" class="axis"/><text x="65" y="395.2" class="tick">-4</text><text x="157" y="395.2" class="tick">-2</text><text x="341" y="395.2" class="tick">2</text><text x="433" y="395.2" class="tick">4</text><text x="525" y="395.2" class="tick">6</text><text x="617" y="395.2" class="tick">8</text><text x="709" y="395.2" class="tick">10</text><text x="801" y="395.2" class="tick">12</text><text x="242" y="477.2" class="tick" text-anchor="end">-2</text><text x="242" y="293.2" class="tick" text-anchor="end">2</text><text x="242" y="201.2" class="tick" text-anchor="end">4</text><text x="242" y="109.2" class="tick" text-anchor="end">6</text><text x="242" y="17.2" class="tick" text-anchor="end">8</text><text x="242" y="396.2" class="tick" text-anchor="end">O</text><polygon points="249,243.2 249,381.2 525,381.2 359.4,270.8" fill="rgba(179,38,30,.10)" stroke="none"/><polygon points="249,243.2 249,381.2 525,381.2 359.4,270.8" fill="url(#hatch0)" stroke="none"/><line x1="249" y1="-1688.8" x2="249" y2="2451.2" stroke="#b3261e" stroke-width="1.8" stroke-linecap="round"/><line x1="-1821" y1="381.2" x2="2319" y2="381.2" stroke="#b3261e" stroke-width="1.8" stroke-linecap="round"/><line x1="2056.27" y1="1402.04" x2="-1388.42" y2="-894.41" stroke="#b3261e" stroke-width="1.8" stroke-linecap="round"/><line x1="2289.67" y1="753.37" x2="-1726.72" y2="-250.73" stroke="#b3261e" stroke-width="1.8" stroke-linecap="round"/><circle cx="249" cy="381.2" r="3.6" fill="#fff" stroke="#b3261e" stroke-width="1.9"/><circle cx="249" cy="197.2" r="3.6" fill="#fff" stroke="#b3261e" stroke-width="1.9"/><circle cx="525" cy="381.2" r="3.6" fill="#fff" stroke="#b3261e" stroke-width="1.9"/><circle cx="249" cy="243.2" r="3.6" fill="#fff" stroke="#b3261e" stroke-width="1.9"/><circle cx="801" cy="381.2" r="3.6" fill="#fff" stroke="#b3261e" stroke-width="1.9"/><circle cx="425.64" cy="270.8" r="9" fill="none" stroke="#d98324" stroke-width="2"/><circle cx="425.64" cy="270.8" r="2.6" fill="#d98324"/><text x="257" y="374.2" class="lbl plain" fill="#b3261e">(0; 0)</text><text x="257" y="190.2" class="lbl plain" fill="#b3261e">(0; 4)</text><text x="533" y="374.2" class="lbl plain" fill="#b3261e">(6; 0)</text><text x="257" y="236.2" class="lbl plain" fill="#b3261e">(0; 3)</text><text x="809" y="374.2" class="lbl plain" fill="#b3261e">(12; 0)</text><text x="345.6" y="319.1" class="lbl" fill="#b3261e">M</text></svg>
