<svg xmlns="http://www.w3.org/2000/svg" width="820" height="560" viewBox="0 0 820 560"><style>
.grid{stroke:#e3e7f4;stroke-width:1;fill:none}.grid2{stroke:#eef0f8;stroke-width:.7;fill:none}
.axis{stroke:#8c96b2;stroke-width:1.2;fill:none}
.tick{font-size:10.5px;fill:#6b7794;text-anchor:middle;font-family:sans-serif}
.lbl{font-size:15px;font-weight:600;font-family:serif;font-style:italic;paint-order:stroke;stroke:#fff;stroke-width:3.5px;stroke-linejoin:round}
.lbl.plain{font-style:normal;font-family:sans-serif;font-size:12.5px}
</style><defs><marker id="arw" viewBox="0 0 10 10" refX="9" refY="5" markerWidth="6" markerHeight="6" orient="auto-start-reverse"><path d="M0 0L10 5L0 10z" fill="#16233d"/></marker><marker id="arwr" viewBox="0 0 10 10" refX="9" refY="5" markerWidth="6" markerHeight="6" orient="auto-start-reverse"><path d="M0 0L10 5L0 10z" fill="#b3261e"/></marker><marker id="arwg" viewBox="0 0 10 10" refX="9" refY="5" markerWidth="6" markerHeight="6" orient="auto-start-reverse"><path d="M0 0L10 5L0 10z" fill="#1f7a5a"/></marker><marker id="arwb" viewBox="0 0 10 10" refX="9" refY="5" markerWidth="6" markerHeight="6" orient="auto-start-reverse"><path d="M0 0L10 5L0 10z" fill="#22468f"/></marker><pattern id="hatch0" width="9" height="9" patternUnits="userSpaceOnUse" patternTransform="rotate(45)"><line x1="0" y1="0" x2="0" y2="9" stroke="#b3261e" stroke-width="1.15" opacity=".75"/></pattern><pattern id="hatch1" width="9" height="9" patternUnits="userSpaceOnUse" patternTransform="rotate(-45)"><line x1="0" y1="0" x2="0" y2="9" stroke="#22468f" stroke-width="1.15" opacity=".75"/></pattern><pattern id="hatch2" width="9" height="9" patternUnits="userSpaceOnUse" patternTransform="rotate(0)"><line x1="0" y1="0" x2="0" y2="9" stroke="#1f7a5a" stroke-width="1.15" opacity=".75"/></pattern></defs><rect width="820" height="560" fill="#fff"/><path d="M14.8 0V560M35.6 0V560M56.4 0V560M77.2 0V560M98 0V560M118.8 0V560M139.6 0V560M160.4 0V560M181.2 0V560M202 0V560M222.8 0V560M243.6 0V560M264.4 0V560M285.2 0V560M306 0V560M326.8 0V560M347.6 0V560M368.4 0V560M389.2 0V560M410 0V560M430.8 0V560M451.6 0V560M472.4 0V560M493.2 0V560M514 0V560M534.8 0V560M555.6 0V560M576.4 0V560M597.2 0V560M618 0V560M638.8 0V560M659.6 0V560M680.4 0V560M701.2 0V560M722 0V560M742.8 0V560M763.6 0V560M784.4 0V560M805.2 0V560M0 545.2H820M0 524.4H820M0 503.6H820M0 482.8H820M0 462H820M0 441.2H820M0 420.4H820M0 399.6H820M0 378.8H820M0 358H820M0 337.2H820M0 316.4H820M0 295.6H820M0 274.8H820M0 254H820M0 233.2H820M0 212.4H820M0 191.6H820M0 170.8H820M0 150H820M0 129.2H820M0 108.4H820M0 87.6H820M0 66.8H820M0 46H820M0 25.2H820M0 4.4H820" class="grid2"/><path d="M98 0V560M202 0V560M306 0V560M410 0V560M514 0V560M618 0V560M722 0V560M0 462H820M0 358H820M0 254H820M0 150H820M0 46H820" class="grid"/><path d="M0 358H820M306 0V560" class="axis"/><text x="98" y="372" class="tick">-4</text><text x="202" y="372" class="tick">-2</text><text x="410" y="372" class="tick">2</text><text x="514" y="372" class="tick">4</text><text x="618" y="372" class="tick">6</text><text x="722" y="372" class="tick">8</text><text x="299" y="466" class="tick" text-anchor="end">-2</text><text x="299" y="258" class="tick" text-anchor="end">2</text><text x="299" y="154" class="tick" text-anchor="end">4</text><text x="299" y="50" class="tick" text-anchor="end">6</text><text x="299" y="373" class="tick" text-anchor="end">O</text><polygon points="306,150 306,358 462,358 410,254" fill="rgba(179,38,30,.10)" stroke="none"/><polygon points="306,150 306,358 462,358 410,254" fill="url(#hatch0)" stroke="none"/><line x1="306" y1="-1712" x2="306" y2="2428" stroke="#b3261e" stroke-width="1.8" stroke-linecap="round"/><line x1="-1764" y1="358" x2="2376" y2="358" stroke="#b3261e" stroke-width="1.8" stroke-linecap="round"/><line x1="1873.71" y1="1717.71" x2="-1053.71" y2="-1209.71" stroke="#b3261e" stroke-width="1.8" stroke-linecap="round"/><line x1="1356.53" y1="2147.06" x2="-494.93" y2="-1555.86" stroke="#b3261e" stroke-width="1.8" stroke-linecap="round"/><line x1="254" y1="358" x2="462" y2="358" stroke="#b3261e" stroke-width="3.4" stroke-linecap="butt"/><path d="M254 358l7 -11M263 358l7 -11M272 358l7 -11M281 358l7 -11M290 358l7 -11M299 358l7 -11M308 358l7 -11M317 358l7 -11M326 358l7 -11M335 358l7 -11M344 358l7 -11M353 358l7 -11M362 358l7 -11M371 358l7 -11M380 358l7 -11M389 358l7 -11M398 358l7 -11M407 358l7 -11M416 358l7 -11M425 358l7 -11M434 358l7 -11M443 358l7 -11M452 358l7 -11M461 358l7 -11" stroke="#b3261e" stroke-width="1" opacity=".55" fill="none"/><circle cx="254" cy="358" r="5" fill="#b3261e" stroke="#b3261e" stroke-width="2.2"/><circle cx="462" cy="358" r="5" fill="#b3261e" stroke="#b3261e" stroke-width="2.2"/><text x="371" y="280" class="lbl" fill="#b3261e">H</text><text x="358" y="340" class="lbl" fill="#b3261e">A</text></svg>